<?xml version="1.0" encoding="UTF-8"?>
<svg version="1.1" xmlns="http://www.w3.org/2000/svg" width="526" height="470">
<path d="M0 0 C173.58 0 347.16 0 526 0 C526 155.1 526 310.2 526 470 C352.42 470 178.84 470 0 470 C0 314.9 0 159.8 0 0 Z " fill="#F1F1F1" transform="translate(0,0)"/>
<path d="M0 0 C5.47967822 1.20454188 8.27379987 4.36294004 11.35546875 8.7890625 C17.65893392 18.85480531 20.08006876 29.82235892 17.41796875 41.6015625 C12.66631121 57.8033948 2.80825215 69.34955259 -11.83203125 77.4765625 C-26.05260542 84.69413787 -40.1916204 85.69601048 -55.83666992 86.14038086 C-77.85837289 86.78107368 -99.180183 90.09111149 -115.55078125 106.1640625 C-123.72170028 115.16874878 -127.3479822 124.98760341 -127.15234375 137.1171875 C-126.48750589 144.08987723 -124.1515246 151.70265822 -118.83203125 156.4765625 C-107.72235899 163.47599998 -97.13572049 165.19548173 -84.08203125 162.7890625 C-82.3256758 162.3778183 -80.57640406 161.93598579 -78.83203125 161.4765625 C-78.22472168 161.32058594 -77.61741211 161.16460937 -76.99169922 161.00390625 C-58.90886074 156.32618995 -41.37913652 150.17329492 -23.95703125 143.4765625 C-23.31520905 143.23138885 -22.67338684 142.98621521 -22.01211548 142.73361206 C-9.7779955 138.04684114 2.18980138 132.81688353 13.66796875 126.4765625 C38.94624535 112.76944645 38.94624535 112.76944645 53.16796875 111.4765625 C54.14443359 111.37988281 54.14443359 111.37988281 55.140625 111.28125 C64.86325706 110.75188709 74.75561602 113.9681936 82.1640625 120.28515625 C87.91733039 126.57674161 92.97226516 135.19256561 93.29296875 143.8515625 C93.25171875 144.7178125 93.21046875 145.5840625 93.16796875 146.4765625 C92.67296875 145.8165625 92.17796875 145.1565625 91.66796875 144.4765625 C83.92789776 135.18847732 75.51716029 127.4487071 63.16796875 125.4765625 C59.66160181 125.26081748 56.1791254 125.28521797 52.66796875 125.3515625 C51.75015625 125.36058594 50.83234375 125.36960937 49.88671875 125.37890625 C47.64685319 125.40223818 45.40755692 125.43497015 43.16796875 125.4765625 C38.04116184 136.2070886 37.91814234 145.79350386 38.16796875 157.4765625 C38.18472656 158.35183594 38.20148438 159.22710937 38.21875 160.12890625 C39.18787744 174.99809009 48.4431566 190.56372351 59.16796875 200.4765625 C71.01101741 209.75895199 82.52104916 212.19690281 97.16796875 211.4765625 C96.31525391 211.03957031 96.31525391 211.03957031 95.4453125 210.59375 C79.80470935 202.2903914 69.71338666 188.0148013 64.29296875 171.2265625 C61.74842687 160.7606194 62.12709954 149.48252436 66.16796875 139.4765625 C68.21515368 142.972391 68.75788943 146.31589277 69.41796875 150.2890625 C72.6203973 167.37147955 79.77614281 180.66232174 94.31494141 190.84228516 C103.43452446 196.86673699 113.58685329 201.17786186 123.65625 205.34765625 C138.48796369 211.51157338 145.27075632 218.75502506 151.859375 233.27734375 C153.34100728 235.76737054 154.69752416 236.98479404 157.16796875 238.4765625 C161.31982809 238.91824966 164.50178608 238.51333065 168.16796875 236.4765625 C169.42623998 234.62673778 169.42623998 234.62673778 170.16796875 232.4765625 C170.83463542 231.14322917 171.50130208 229.80989583 172.16796875 228.4765625 C174.02906601 234.05985428 170.49269873 240.2516212 168.16796875 245.4765625 C160.8004755 259.78004722 151.61633292 269.32710778 136.16796875 274.4765625 C124.750136 275.62987894 124.750136 275.62987894 120.54296875 272.2265625 C116.81559363 267.91065447 115.67392198 265.38304818 115.859375 259.4921875 C116.70166455 253.99065068 121.07479519 250.24718728 125.16015625 246.8515625 C128.00375945 244.90419222 131.01863072 243.6992148 134.25 242.53125 C136.70647573 241.1804385 137.2657319 240.10689321 138.16796875 237.4765625 C138.60229158 232.58138222 137.6640354 228.53102415 134.60546875 224.6640625 C131.30185836 221.26538419 127.71627055 218.87039692 123.16796875 217.4765625 C119.36729335 217.4765625 116.82617016 218.60818201 113.546875 220.34765625 C109.19023605 222.54933439 104.76318055 224.10270227 100.10546875 225.5390625 C99.28127441 225.79582764 98.45708008 226.05259277 97.60791016 226.31713867 C83.16102547 230.70753048 68.9235333 232.6549248 53.85546875 232.6640625 C52.80423828 232.67630859 51.75300781 232.68855469 50.66992188 232.70117188 C42.36241268 232.71648996 34.09555961 232.11909279 26.16796875 229.4765625 C26.214375 230.04761719 26.26078125 230.61867188 26.30859375 231.20703125 C26.93645384 245.3114598 20.87632727 257.17314529 11.91796875 267.6640625 C2.081159 278.14133232 -11.57723775 285.8468832 -26.15283203 286.66235352 C-30.71864554 286.76930426 -35.28357774 286.84416496 -39.85058594 286.85742188 C-49.75387893 286.90566003 -56.06678124 287.50552083 -63.83203125 293.9765625 C-67.20825997 298.40644649 -66.32751642 304.21734133 -65.83203125 309.4765625 C-65.50407755 311.14429607 -65.17100888 312.81103464 -64.83203125 314.4765625 C-64.3441618 319.52321209 -64.28927523 323.3508463 -66.51953125 327.9765625 C-70.12484496 331.87419895 -72.53184667 332.3527354 -77.76953125 332.8515625 C-82.14749221 332.69520675 -84.54308961 331.47315377 -87.83203125 328.4765625 C-96.59108402 315.36165645 -95.0826323 299.02535399 -92.16967773 284.04321289 C-90.41729276 275.94371507 -88.22167387 270.63998702 -81.3125 265.84375 C-78.3624057 264.21771377 -75.36841823 263.07479979 -72.20703125 261.9140625 C-63.87484199 258.89268907 -63.87484199 258.89268907 -58.59375 252.0078125 C-56.55782723 247.39121085 -56.55782723 247.39121085 -55.83203125 242.4765625 C-56.89679688 243.1778125 -57.9615625 243.8790625 -59.05859375 244.6015625 C-78.35206951 257.24466105 -97.1368821 267.44478299 -119.50390625 273.46484375 C-125.86800013 275.20355716 -131.28196409 276.89985255 -136.83203125 280.4765625 C-137.82203125 280.8065625 -138.81203125 281.1365625 -139.83203125 281.4765625 C-140.95138198 283.12286443 -140.95138198 283.12286443 -141.83203125 285.4765625 C-142.63640625 287.11625 -142.63640625 287.11625 -143.45703125 288.7890625 C-146.12149147 295.90774663 -145.7556377 305.21795379 -143.83203125 312.4765625 C-143.45430257 317.35071532 -143.20412363 321.89026956 -145.01953125 326.4765625 C-148.38545274 330.19068277 -151.21879618 331.66267696 -156.20703125 331.9765625 C-161.22172927 331.80104807 -164.31088329 329.95933282 -167.83203125 326.4765625 C-173.72554683 318.75402484 -173.69718749 308.75622432 -172.83203125 299.4765625 C-171.95683773 293.56446684 -170.63813716 287.7432946 -169.34472656 281.91162109 C-168.71399578 278.91595025 -168.22158066 275.90769119 -167.7331543 272.88623047 C-166.18555332 263.58723511 -164.21577003 255.85139479 -156.64453125 249.7890625 C-155.05573375 248.66289323 -153.45082141 247.55917652 -151.83203125 246.4765625 C-148.48775636 244.15854601 -145.15065784 241.8311807 -141.83203125 239.4765625 C-140.90583984 238.82494141 -140.90583984 238.82494141 -139.9609375 238.16015625 C-130.6474726 230.95458872 -125.09608756 219.39588057 -119.58520508 209.24169922 C-115.68329508 202.08348048 -111.34722049 195.26025261 -106.83203125 188.4765625 C-108.05148438 188.34507812 -109.2709375 188.21359375 -110.52734375 188.078125 C-122.86597332 186.52018981 -133.19992536 179.223282 -141.08203125 169.86328125 C-150.26966428 157.33282638 -152.88930369 142.67248545 -151.83203125 127.4765625 C-151.21084296 123.63204284 -150.17468481 120.12707038 -148.83203125 116.4765625 C-148.48011719 115.49042969 -148.12820312 114.50429687 -147.765625 113.48828125 C-145.03270233 106.38989794 -141.51175531 100.45564595 -136.83203125 94.4765625 C-136.04892578 93.44595703 -136.04892578 93.44595703 -135.25 92.39453125 C-121.45266506 75.37446114 -98.31453715 65.2114162 -76.79223633 62.94970703 C-70.13168884 62.37778438 -63.44903793 62.24576822 -56.76953125 62.0390625 C-33.54458698 61.32150022 -33.54458698 61.32150022 -13.89453125 49.9765625 C-8.0387816 43.62479641 -6.38707357 38.00732429 -6.3984375 29.484375 C-7.03933957 25.03847779 -9.19731712 21.85145305 -11.47265625 18.04296875 C-13.6031112 14.02081673 -13.72849479 11.95888019 -12.83203125 7.4765625 C-9.9066424 1.73534992 -6.4636607 -0.58465273 0 0 Z " fill="#040404" transform="translate(225.83203125,74.5234375)"/>
<path d="M0 0 C3.43250764 1.20123568 5.78935501 3.82108344 8.37817383 6.28540039 C8.96284424 6.82898193 9.54751465 7.37256348 10.14990234 7.93261719 C13.20335005 10.80817763 15.94421356 13.70219061 18.50317383 17.03540039 C21.83770623 21.06325141 25.89507187 22.72360977 30.58300781 24.87524414 C40.698416 29.71193819 49.74215523 38.26721996 54.06567383 48.72290039 C54.72635672 51.48698188 54.95983428 53.86523256 55.06567383 56.72290039 C54.55004883 56.06290039 54.03442383 55.40290039 53.50317383 54.72290039 C52.69879883 53.73290039 51.89442383 52.74290039 51.06567383 51.72290039 C50.59129883 51.10672852 50.11692383 50.49055664 49.62817383 49.85571289 C43.3341058 42.07890768 35.79763374 37.54593255 26.37817383 34.34790039 C20.61731241 32.27780362 17.6596483 29.76115921 13.90161133 25.00415039 C9.85392572 19.97468571 4.76899643 15.75279052 -0.93432617 12.72290039 C-4.93497281 18.53029068 -6.06142811 21.86878905 -5.99682617 28.91040039 C-5.98780273 30.18270508 -5.9787793 31.45500977 -5.96948242 32.76586914 C-5.95788086 33.74168945 -5.9462793 34.71750977 -5.93432617 35.72290039 C-6.84182617 36.02454102 -7.74932617 36.32618164 -8.68432617 36.63696289 C-19.83885829 40.36320853 -19.83885829 40.36320853 -28.93432617 47.72290039 C-28.63666946 41.76976606 -25.80130164 38.0206795 -21.93432617 33.72290039 C-21.27432617 33.39290039 -20.61432617 33.06290039 -19.93432617 32.72290039 C-19.27877498 30.19556804 -19.27877498 30.19556804 -18.93432617 27.72290039 C-32.63738425 31.57314882 -43.90424809 37.81634354 -51.46557617 50.23852539 C-54.12461201 55.27832588 -55.79875317 60.14826927 -56.93432617 65.72290039 C-57.59432617 65.72290039 -58.25432617 65.72290039 -58.93432617 65.72290039 C-59.52339499 54.79240112 -59.46236308 45.54243963 -53.93432617 35.72290039 C-51.76245117 33.36743164 -51.76245117 33.36743164 -49.93432617 31.72290039 C-60.4513647 34.32364311 -70.87561264 38.28701506 -76.93432617 47.72290039 C-80.70307263 54.9637065 -81.46458824 61.27419703 -81.18432617 69.34790039 C-81.1662793 70.35208008 -81.14823242 71.35625977 -81.12963867 72.39086914 C-81.08306614 74.83592691 -81.01769645 77.27886851 -80.93432617 79.72290039 C-88.18754014 73.82198055 -94.70810704 67.12249227 -96.93432617 57.72290039 C-103.60484628 63.93365277 -103.60484628 63.93365277 -107.93432617 71.72290039 C-107.11254883 71.89692383 -107.11254883 71.89692383 -106.27416992 72.07446289 C-88.11553388 77.10673932 -74.92930821 92.32516096 -65.93432617 108.03540039 C-59.93501886 118.8654683 -54.47611102 130.88151227 -52.02416992 143.07055664 C-50.76256716 147.29850855 -49.54421192 148.51941315 -45.99682617 151.03540039 C-40.33976266 155.14281175 -40.33976266 155.14281175 -37.93432617 157.72290039 C-35.56044867 144.67638353 -37.20467634 132.85491899 -39.74682617 119.97290039 C-39.87743439 119.31049347 -40.0080426 118.64808655 -40.14260864 117.96560669 C-41.44880091 111.41053727 -42.86012623 104.91829733 -44.60229492 98.46508789 C-46.04436225 92.80135063 -46.47517204 87.43006922 -46.43432617 81.59790039 C-46.42860596 80.64012695 -46.42288574 79.68235352 -46.41699219 78.69555664 C-46.21036451 70.55846139 -44.88284858 64.72037142 -39.04370117 58.80883789 C-37.12182617 57.09790039 -37.12182617 57.09790039 -33.93432617 54.72290039 C-35.93432617 59.72290039 -35.93432617 59.72290039 -36.98120117 61.94946289 C-39.72923873 69.9458017 -38.76895045 79.88418978 -35.19995117 87.44946289 C-31.47956121 94.1323856 -27.39922994 99.39499978 -21.93432617 104.72290039 C-22.29526367 103.69293945 -22.65620117 102.66297852 -23.02807617 101.60180664 C-26.81249082 90.23104851 -30.03508693 77.28537305 -25.30932617 65.66040039 C-24.19213867 63.64086914 -24.19213867 63.64086914 -22.93432617 61.72290039 C-22.28077148 60.66522461 -22.28077148 60.66522461 -21.61401367 59.58618164 C-17.81331889 53.96821476 -13.22170692 49.61638254 -6.42260742 48.19946289 C-4.25175963 47.94727649 -2.11826846 47.77851003 0.06567383 47.72290039 C-0.32104492 48.23079102 -0.70776367 48.73868164 -1.10620117 49.26196289 C-7.86716799 58.19848834 -11.85206828 64.10929117 -10.93432617 75.72290039 C-9.19194203 80.58323509 -5.69686831 86.34162932 -0.93432617 88.72290039 C1.23024932 88.88000668 3.39766241 88.99892596 5.56567383 89.09790039 C14.38361338 89.71560377 20.740011 91.31384594 28.39501953 95.7956543 C36.28225381 100.37339826 42.74134089 102.61610059 52.06567383 100.72290039 C54.04996603 99.66068691 54.04996603 99.66068691 55.06567383 97.72290039 C55.42837867 94.98046476 55.42837867 94.98046476 55.25317383 92.03540039 C55.22610352 91.0415332 55.1990332 90.04766602 55.17114258 89.02368164 C55.13633789 88.26442383 55.1015332 87.50516602 55.06567383 86.72290039 C60.32407402 87.39705426 65.09205729 88.96555588 70.06567383 90.72290039 C67.91396832 95.42711929 64.83606273 99.19754725 61.06567383 102.72290039 C59.54973633 103.21790039 59.54973633 103.21790039 58.00317383 103.72290039 C54.59393659 104.88349179 54.07077754 105.78034233 52.06567383 108.66040039 C48.99848836 113.02737504 46.38825965 115.1125011 41.00317383 116.10180664 C33.30168225 116.73022696 28.6896065 112.72558746 23.01489258 108.02368164 C21.82270121 107.00427163 20.64135279 105.97191619 19.47583008 104.92211914 C15.83497535 101.8258798 11.74296903 102.3948227 7.17504883 102.44946289 C1.08396107 102.98511131 -3.01668901 105.46255084 -7.18432617 109.84790039 C-13.19270662 117.62631724 -14.59321495 126.61805427 -16.36669922 136.03930664 C-18.39991354 146.58961544 -21.11904688 156.8851552 -27.21166992 165.89086914 C-28.20025811 167.78939298 -28.20025811 167.78939298 -27.06323242 169.96118164 C-26.69069336 170.54254883 -26.3181543 171.12391602 -25.93432617 171.72290039 C-19.5006977 168.88453489 -16.28039313 162.94103586 -13.66479492 156.68774414 C-12.70045804 154.04689226 -11.78565967 151.40209699 -10.93432617 148.72290039 C7.56163095 155.68041126 24.63732626 169.25568785 33.06567383 187.33227539 C38.40250753 200.09064345 36.69181545 213.97560157 32.06567383 226.72290039 C27.45039683 237.0050365 21.00487447 244.85874041 10.35864258 249.05493164 C6.46536785 250.18908833 3.04389997 250.68666009 -0.93432617 249.72290039 C-4.62643196 247.60609307 -7.13129247 244.96091068 -9.43432617 241.41040039 C-10.43682184 236.02198617 -9.76339251 230.82911094 -7.30932617 225.91040039 C-4.42551894 222.04002752 -2.22869844 220.83104677 2.06567383 218.72290039 C3.05567383 218.06290039 4.04567383 217.40290039 5.06567383 216.72290039 C5.74139144 212.33073588 5.40794951 210.27909838 3.06567383 206.47290039 C-0.05176951 203.19827503 -3.54078042 201.64906596 -7.93432617 200.72290039 C-9.62187415 200.76257628 -11.30937493 200.80430363 -12.99682617 200.84790039 C-15.55932617 200.65649414 -15.55932617 200.65649414 -17.93432617 199.72290039 C-20.52413293 196.2320567 -22.20539027 192.41471352 -24.04370117 188.48950195 C-34.85476982 167.04517828 -58.09392513 152.42880403 -77.04663086 139.03515625 C-80.63485285 136.48206077 -83.94726787 133.99220042 -86.93432617 130.72290039 C-79.83548683 131.87079782 -73.51773998 133.83740413 -66.93432617 136.72290039 C-73.0212104 116.45558259 -82.047293 99.81384317 -101.37963867 89.40649414 C-111.98020558 84.7545634 -125.60006185 85.14680427 -136.37963867 89.06665039 C-136.89268555 89.28321289 -137.40573242 89.49977539 -137.93432617 89.72290039 C-132.09362659 78.29544468 -122.66545697 69.0029945 -113.93432617 59.72290039 C-113.27948242 59.01391602 -112.62463867 58.30493164 -111.94995117 57.57446289 C-88.62929272 33.15753417 -54.52703314 15.6226536 -20.62182617 14.41040039 C-15.86773184 14.22054486 -15.86773184 14.22054486 -12.43432617 10.97290039 C-11.93932617 9.90040039 -11.44432617 8.82790039 -10.93432617 7.72290039 C-3.30924491 -0.47406197 -3.30924491 -0.47406197 0 0 Z " fill="#050505" transform="translate(416.934326171875,86.277099609375)"/>
<path d="M0 0 C5.47967822 1.20454188 8.27379987 4.36294004 11.35546875 8.7890625 C17.65893392 18.85480531 20.08006876 29.82235892 17.41796875 41.6015625 C12.66631121 57.8033948 2.80825215 69.34955259 -11.83203125 77.4765625 C-30.13979066 86.76856659 -48.92263701 85.82449366 -68.83203125 85.4765625 C-68.83203125 78.2165625 -68.83203125 70.9565625 -68.83203125 63.4765625 C-66.08890625 63.3734375 -63.34578125 63.2703125 -60.51953125 63.1640625 C-40.41342724 62.36560962 -40.41342724 62.36560962 -21.83203125 55.4765625 C-20.80078125 54.8990625 -19.76953125 54.3215625 -18.70703125 53.7265625 C-12.18526447 48.62257111 -7.60536326 43.41498853 -6.515625 35.046875 C-6.04786309 28.02049391 -7.91582503 23.99642672 -11.47265625 18.04296875 C-13.6031112 14.02081673 -13.72849479 11.95888019 -12.83203125 7.4765625 C-9.9066424 1.73534992 -6.4636607 -0.58465273 0 0 Z " fill="#030303" transform="translate(225.83203125,74.5234375)"/>
<path d="M0 0 C-0.2165625 0.62261719 -0.433125 1.24523437 -0.65625 1.88671875 C-6.84040545 22.41467921 -2.81838904 42.93205609 7 61.4765625 C9.71933734 66.38706842 12.76286347 70.9292149 16.5 75.125 C17.0671875 75.76695312 17.634375 76.40890625 18.21875 77.0703125 C20.0943785 79.10224338 22.04004165 81.04966916 24 83 C20.14589793 83.05847045 16.29191135 83.09375405 12.4375 83.125 C10.80844727 83.15013672 10.80844727 83.15013672 9.14648438 83.17578125 C-2.27876832 83.24523567 -2.27876832 83.24523567 -7 81 C-8.63840554 78.68802773 -9.66723193 76.91923827 -10.75 74.375 C-11.30171875 73.18648438 -11.8534375 71.99796875 -12.421875 70.7734375 C-12.95217733 69.51741538 -13.47820622 68.25958063 -14 67 C-14.26723877 66.39833008 -14.53447754 65.79666016 -14.80981445 65.17675781 C-17.26919192 59.2840071 -17.96499277 53.30910688 -18.6875 47 C-18.81705078 45.93910156 -18.94660156 44.87820312 -19.08007812 43.78515625 C-19.39557965 41.19103263 -19.70198859 38.59618089 -20 36 C-22.51082124 43.0567994 -23.48574696 49.3383985 -23.375 56.8125 C-23.36919922 57.76721191 -23.36339844 58.72192383 -23.35742188 59.70556641 C-23.22087566 67.17388573 -22.13987925 73.83342326 -20 81 C-20.63389648 81.0501123 -21.26779297 81.10022461 -21.92089844 81.15185547 C-38.544575 82.41604327 -38.544575 82.41604327 -55 85 C-53.50237574 81.08872888 -51.7232468 77.38166908 -49.875 73.625 C-46.73802046 67.09991681 -44.35430674 60.42441253 -42.0625 53.5625 C-37.67176686 40.518186 -32.30775642 28.08472236 -24 17 C-23.58878906 16.41347656 -23.17757812 15.82695312 -22.75390625 15.22265625 C-18.22252349 9.29286456 -7.81207646 0 0 0 Z " fill="#EDEDED" transform="translate(250,209)"/>
<path d="M0 0 C9.9744977 5.74721058 14.30520056 13.4036233 18.97265625 23.69140625 C20.45428853 26.18143304 21.81080541 27.39885654 24.28125 28.890625 C28.43310934 29.33231216 31.61506733 28.92739315 35.28125 26.890625 C36.53952123 25.04080028 36.53952123 25.04080028 37.28125 22.890625 C37.94791667 21.55729167 38.61458333 20.22395833 39.28125 18.890625 C41.14234726 24.47391678 37.60597998 30.6656837 35.28125 35.890625 C27.91375675 50.19410972 18.72961417 59.74117028 3.28125 64.890625 C-8.13658275 66.04394144 -8.13658275 66.04394144 -12.34375 62.640625 C-16.07112512 58.32471697 -17.21279677 55.79711068 -17.02734375 49.90625 C-16.1850542 44.40471318 -11.81192356 40.66124978 -7.7265625 37.265625 C-4.8829593 35.31825472 -1.86808803 34.1132773 1.36328125 32.9453125 C3.81975698 31.594501 4.37901315 30.52095571 5.28125 27.890625 C5.71557283 22.99544472 4.77731665 18.94508665 1.71875 15.078125 C-1.58486039 11.67944669 -5.1704482 9.28445942 -9.71875 7.890625 C-14.24269776 7.890625 -17.35760346 9.68931128 -21.3046875 11.76953125 C-27.63282077 14.70832453 -34.68268442 17.2561349 -41.71875 16.890625 C-41.22375 15.405625 -41.22375 15.405625 -40.71875 13.890625 C-39.72875 13.560625 -38.73875 13.230625 -37.71875 12.890625 C-37.38875 12.230625 -37.05875 11.570625 -36.71875 10.890625 C-35.71875 8.890625 -35.71875 8.890625 -32.71875 7.890625 C-32.244375 7.08625 -31.77 6.281875 -31.28125 5.453125 C-29.5415976 2.60009506 -28.5893717 2.32593585 -25.71875 0.890625 C-25.22375 0.065625 -24.72875 -0.759375 -24.21875 -1.609375 C-18.64734149 -10.89505585 -7.18754864 -3.86086273 0 0 Z " fill="#040404" transform="translate(358.71875,284.109375)"/>
<path d="M0 0 C0 3.55733833 -0.92360153 4.96071971 -2.625 8.0625 C-5.19683761 13.08571445 -7.19097656 18.07452122 -8.9375 23.4375 C-9.30633301 24.56937744 -9.30633301 24.56937744 -9.68261719 25.72412109 C-10.74410977 29.01720715 -11.78685097 32.31578014 -12.81591797 35.61914062 C-20.07096963 58.84547063 -28.67001386 76.22124931 -51.09814453 88.05273438 C-55.88901455 90.43894434 -60.827013 92.60015593 -66 94 C-66.66 93.67 -67.32 93.34 -68 93 C-67.030625 92.13375 -66.06125 91.2675 -65.0625 90.375 C-55.0500256 80.22122052 -49.9241539 67.76963882 -44.99267578 54.63623047 C-29.86391903 14.45907468 -29.86391903 14.45907468 -10 4 C-6.7122999 2.51877683 -3.40393003 1.18879118 0 0 Z " fill="#ECECEC" transform="translate(168,241)"/>
<path d="M0 0 C-0.51296631 0.825 -1.02593262 1.65 -1.55444336 2.5 C-6.91215057 11.34693178 -10.4598952 20.16390742 -13.5625 30 C-18.25383835 44.74975125 -23.4443161 58.30884413 -34 70 C-34.56460938 70.63421875 -35.12921875 71.2684375 -35.7109375 71.921875 C-42.27850933 78.89028455 -50.28768129 84.110572 -59 88 C-59.66 88 -60.32 88 -61 88 C-59.88406176 85.70705226 -58.70625425 83.48539279 -57.44140625 81.26953125 C-52.24974214 71.71730102 -48.81847065 61.81367463 -45.5 51.5 C-38.3974939 29.5100345 -31.67349211 13.7419719 -11 2 C-4.13761468 -1.37920489 -4.13761468 -1.37920489 0 0 Z " fill="#ECECEC" transform="translate(212,227)"/>
<path d="M0 0 C-0.40992188 0.44730469 -0.81984375 0.89460937 -1.2421875 1.35546875 C-1.78101563 1.96003906 -2.31984375 2.56460938 -2.875 3.1875 C-3.40867187 3.77917969 -3.94234375 4.37085938 -4.4921875 4.98046875 C-8.63384908 10.52772015 -8.70606074 16.33368627 -8 23 C-6.1322155 30.80959557 -1.14867158 35.17828532 5 40 C-0.21924551 41.7397485 -5.09232929 39.06867639 -10 37 C-15.22126038 34.04128578 -19.18519549 30.89811467 -21 25 C-21.68290253 19.02948076 -21.57644166 14.02937109 -18 9 C-14.07996232 4.81862648 -6.18223693 -3.09111847 0 0 Z " fill="#0D0D0D" transform="translate(440,132)"/>
<path d="M0 0 C14.07086278 3.56869708 24.18182523 13.32016004 31.9375 25.1875 C32.52253296 26.07900757 32.52253296 26.07900757 33.11938477 26.98852539 C35.19707686 30.29236606 36.53845258 33.10981458 37 37 C33.9691582 35.64218786 31.86349327 34.11581436 29.51660156 31.77539062 C28.85621887 31.12131226 28.19583618 30.46723389 27.51544189 29.79333496 C26.81425232 29.08809692 26.11306274 28.38285889 25.390625 27.65625 C24.30041046 26.56890564 24.30041046 26.56890564 23.18817139 25.45959473 C21.65602721 23.92880989 20.12639925 22.39550303 18.59912109 20.85986328 C16.25188369 18.5018923 13.89414222 16.15480454 11.53515625 13.80859375 C10.04883718 12.32095364 8.56313831 10.83269356 7.078125 9.34375 C6.3688385 8.63851196 5.659552 7.93327393 4.92877197 7.20666504 C4.28099792 6.55258667 3.63322388 5.8985083 2.96582031 5.22460938 C2.10455536 4.36095764 2.10455536 4.36095764 1.22589111 3.4798584 C0 2 0 2 0 0 Z " fill="#E9E9E9" transform="translate(309,173)"/>
<path d="M0 0 C0.66 0 1.32 0 2 0 C3.32 0 4.64 0 6 0 C7.24957083 8.00467649 7.68770672 13.56933885 3.12890625 20.48828125 C2.75636719 20.98714844 2.38382813 21.48601562 2 22 C0.53984709 21.71758359 -0.91809793 21.42373386 -2.375 21.125 C-3.18710938 20.96257812 -3.99921875 20.80015625 -4.8359375 20.6328125 C-7 20 -7 20 -9 18 C-9 14.30581799 -7.71820705 12.22163822 -6 9 C-6.99 9 -7.98 9 -9 9 C-8.6875 5.625 -8.6875 5.625 -8 2 C-4.73688263 -0.17541158 -3.75374806 -0.1924999 0 0 Z " fill="#1E1E1E" transform="translate(174,233)"/>
<path d="M0 0 C1.07894531 0.04640625 2.15789062 0.0928125 3.26953125 0.140625 C6.14671875 0.264375 6.14671875 0.264375 9.08203125 0.390625 C9.08203125 5.010625 9.08203125 9.630625 9.08203125 14.390625 C7.10203125 14.390625 5.12203125 14.390625 3.08203125 14.390625 C2.21578125 14.638125 1.34953125 14.885625 0.45703125 15.140625 C-1.91796875 15.390625 -1.91796875 15.390625 -4.23046875 13.890625 C-6.51768746 10.50215284 -6.41971247 8.40457473 -5.91796875 4.390625 C-4.27703276 1.22114589 -3.59906028 0.48180191 0 0 Z " fill="#1A1A1A" transform="translate(94.91796875,232.609375)"/>
<path d="M0 0 C0.33 0 0.66 0 1 0 C1 12.21 1 24.42 1 37 C13.21 37 25.42 37 38 37 C38 37.66 38 38.32 38 39 C25.79 39 13.58 39 1 39 C1 41.97 1 44.94 1 48 C0.67 48 0.34 48 0 48 C0 45.03 0 42.06 0 39 C-11.88 39 -23.76 39 -36 39 C-36.33 38.34 -36.66 37.68 -37 37 C-24.79 37 -12.58 37 0 37 C0 24.79 0 12.58 0 0 Z " fill="#E7E7E7" transform="translate(156,89)"/>
<path d="M0 0 C2.29013653 3.4352048 2.17842973 4.985331 2 9 C2.66 9.33 3.32 9.66 4 10 C1.90163996 11.03271642 -0.20390891 12.05083717 -2.3125 13.0625 C-3.48425781 13.63097656 -4.65601563 14.19945312 -5.86328125 14.78515625 C-9 16 -9 16 -12 15 C-12 11.37 -12 7.74 -12 4 C-12.66 3.67 -13.32 3.34 -14 3 C-12.23050388 2.49528803 -10.45934777 1.99639315 -8.6875 1.5 C-7.70136719 1.2215625 -6.71523437 0.943125 -5.69921875 0.65625 C-3 0 -3 0 0 0 Z " fill="#222222" transform="translate(161,233)"/>
<path d="M0 0 C0.3125 2.25 0.3125 2.25 0 5 C-2.25 7 -2.25 7 -5 9 C-6.37368345 10.63356951 -7.71937515 12.2925002 -9 14 C-9 13.34 -9 12.68 -9 12 C-11.25073828 12.06018017 -13.50072325 12.14901206 -15.75 12.25 C-17.62945312 12.31960937 -17.62945312 12.31960937 -19.546875 12.390625 C-23.40518636 13.07150347 -24.60916205 13.98126522 -27 17 C-27.66 16.67 -28.32 16.34 -29 16 C-21.88440065 7.75692893 -11.23796259 0 0 0 Z " fill="#E3E3E3" transform="translate(398,114)"/>
<path d="M0 0 C0.33 0.66 0.66 1.32 1 2 C4.3 2 7.6 2 11 2 C10.113125 3.11375 9.22625 4.2275 8.3125 5.375 C3.11527318 12.32920894 -0.26864901 19.5006406 -2 28 C-2.66 28 -3.32 28 -4 28 C-4.4271618 17.87863851 -4.52270791 9.34827573 0 0 Z " fill="#0D0D0D" transform="translate(362,124)"/>
<path d="M0 0 C1.40773397 4.22320191 0.05711339 6.48935571 -1.625 10.484375 C-3.67249173 14.2303542 -6.33695083 16.82305631 -10 19 C-11.32 19.33 -12.64 19.66 -14 20 C-14.33 16.7 -14.66 13.4 -15 10 C-10.05 6.7 -5.1 3.4 0 0 Z " fill="#E7E7E7" transform="translate(170,316)"/>
<path d="M0 0 C1.04796218 0.84643099 2.08792692 1.70276192 3.125 2.5625 C3.70507812 3.03816406 4.28515625 3.51382812 4.8828125 4.00390625 C7.82159088 6.77459952 10.37148276 9.93339656 13 13 C3.1 14.485 3.1 14.485 -7 16 C-5.53535641 12.33839103 -4.01471944 8.76899245 -2.375 5.1875 C-1.92898437 4.21167969 -1.48296875 3.23585938 -1.0234375 2.23046875 C-0.51683594 1.12638672 -0.51683594 1.12638672 0 0 Z " fill="#E6E6E6" transform="translate(202,278)"/>
<path d="M0 0 C1.65625 2.265625 1.65625 2.265625 3.5 5.25 C4.1084375 6.22453125 4.716875 7.1990625 5.34375 8.203125 C6.66713848 10.43790366 7.88436415 12.65716472 9 15 C6.87561661 15.08078641 4.7503677 15.13909141 2.625 15.1875 C0.84996094 15.23970703 0.84996094 15.23970703 -0.9609375 15.29296875 C-2.46527344 15.14794922 -2.46527344 15.14794922 -4 15 C-6.17240606 11.74139091 -6.23564158 11.17949197 -5.8125 7.5 C-5.73644531 6.7265625 -5.66039062 5.953125 -5.58203125 5.15625 C-4.73690855 2.02532563 -3.3901172 0 0 0 Z " fill="#121212" transform="translate(420,106)"/>
<path d="M0 0 C0.33 0 0.66 0 1 0 C1 6.27 1 12.54 1 19 C13.21 19 25.42 19 38 19 C38 19.33 38 19.66 38 20 C25.79 20 13.58 20 1 20 C1 32.21 1 44.42 1 57 C0.67 57 0.34 57 0 57 C0 44.79 0 32.58 0 20 C-12.21 20 -24.42 20 -37 20 C-37 19.67 -37 19.34 -37 19 C-24.79 19 -12.58 19 0 19 C0 13.72 0 8.44 0 3 C-0.66 2.67 -1.32 2.34 -2 2 C-1.34 1.34 -0.68 0.68 0 0 Z " fill="#E4E4E4" transform="translate(383,335)"/>
<path d="M0 0 C0.33 0 0.66 0 1 0 C1 5.94 1 11.88 1 18 C13.21 18 25.42 18 38 18 C38 18.33 38 18.66 38 19 C25.79 19 13.58 19 1 19 C1.33 26.26 1.66 33.52 2 41 C2.33 41 2.66 41 3 41 C3 43.31 3 45.62 3 48 C2.34 48 1.68 48 1 48 C1 50.64 1 53.28 1 56 C0.67 56 0.34 56 0 56 C0 43.79 0 31.58 0 19 C-6.93 19 -13.86 19 -21 19 C-20.67 18.34 -20.34 17.68 -20 17 C-13.4 17.33 -6.8 17.66 0 18 C0 12.06 0 6.12 0 0 Z " fill="#1E1E1E" transform="translate(156,336)"/>
<path d="M0 0 C-1.23697917 1.39973958 -2.47395833 2.79947917 -3.7109375 4.19921875 C-5.24742804 6.34564947 -6.09885045 8.52815521 -7 11 C-8.02480469 10.95359375 -9.04960937 10.9071875 -10.10546875 10.859375 C-11.46611656 10.82183989 -12.82679605 10.78544159 -14.1875 10.75 C-14.86103516 10.71648437 -15.53457031 10.68296875 -16.22851562 10.6484375 C-19.99375127 10.57496949 -21.83108854 10.88606757 -24.98828125 13.015625 C-25.65214844 13.67046875 -26.31601562 14.3253125 -27 15 C-23.9062903 7.75009443 -15.93663591 4.00156709 -9 1 C-3.51724138 -1.17241379 -3.51724138 -1.17241379 0 0 Z " fill="#E3E3E3" transform="translate(368,118)"/>
<path d="M0 0 C0.35191406 0.87398437 0.35191406 0.87398437 0.7109375 1.765625 C2.29152924 4.50531734 4.09401497 5.86983969 6.625 7.75 C7.44226563 8.36359375 8.25953125 8.9771875 9.1015625 9.609375 C9.72804688 10.06828125 10.35453125 10.5271875 11 11 C9.68 13.64 8.36 16.28 7 19 C5.35 18.01 3.7 17.02 2 16 C2.99 15.67 3.98 15.34 5 15 C2.67093383 11.50640074 0.73524038 10.74841039 -3 9 C-4 8 -4 8 -4.3125 5.625 C-4 3 -4 3 -2 1.1875 C-1.34 0.795625 -0.68 0.40375 0 0 Z " fill="#1E1E1E" transform="translate(364,229)"/>
<path d="M0 0 C-0.33 2.64 -0.66 5.28 -1 8 C-2.93559313 8.13504138 -4.873872 8.23201129 -6.8125 8.3125 C-8.43091797 8.39951172 -8.43091797 8.39951172 -10.08203125 8.48828125 C-13 8 -13 8 -14.88671875 5.66796875 C-16 3 -16 3 -16 0 C-13.7089095 -0.19441368 -11.41709663 -0.38033135 -9.125 -0.5625 C-7.21074219 -0.71912109 -7.21074219 -0.71912109 -5.2578125 -0.87890625 C-2 -1 -2 -1 0 0 Z " fill="#1B1B1B" transform="translate(139,239)"/>
<path d="M0 0 C2.12744999 0.78505901 4.25189674 1.5782606 6.375 2.375 C7.55835938 2.81585938 8.74171875 3.25671875 9.9609375 3.7109375 C13 5 13 5 15 7 C15.1953125 9.1640625 15.1953125 9.1640625 15.125 11.625 C15.10695313 12.44226563 15.08890625 13.25953125 15.0703125 14.1015625 C15.03550781 15.04128906 15.03550781 15.04128906 15 16 C7.8218369 12.82565676 3.54526711 9.0766312 0 2 C0 1.34 0 0.68 0 0 Z " fill="#0F0F0F" transform="translate(446,138)"/>
<path d="M0 0 C0.66 0 1.32 0 2 0 C2.29132813 0.78503906 2.58265625 1.57007813 2.8828125 2.37890625 C6.82666551 12.81868051 6.82666551 12.81868051 15 20 C14.67 20.99 14.34 21.98 14 23 C7.49905495 19.68579272 2.87471267 15.96118764 0 9 C-0.1953125 6.640625 -0.1953125 6.640625 -0.125 4.25 C-0.10695313 3.45078125 -0.08890625 2.6515625 -0.0703125 1.828125 C-0.04710937 1.22484375 -0.02390625 0.6215625 0 0 Z " fill="#1C1C1C" transform="translate(439,147)"/>
<path d="M0 0 C3.62593543 1.61531154 5.50634061 3.67014025 8.02832031 6.73095703 C12.51698498 11.8965897 17.51890383 16.61906451 22.375 21.4375 C23.50413955 22.56161467 24.63304778 23.68596174 25.76171875 24.81054688 C28.50515188 27.54305235 31.25169985 30.27239009 34 33 C34.66 32.67 35.32 32.34 36 32 C36.495 34.475 36.495 34.475 37 37 C33.9691582 35.64218786 31.86349327 34.11581436 29.51660156 31.77539062 C28.85621887 31.12131226 28.19583618 30.46723389 27.51544189 29.79333496 C26.81425232 29.08809692 26.11306274 28.38285889 25.390625 27.65625 C24.30041046 26.56890564 24.30041046 26.56890564 23.18817139 25.45959473 C21.65602721 23.92880989 20.12639925 22.39550303 18.59912109 20.85986328 C16.25188369 18.5018923 13.89414222 16.15480454 11.53515625 13.80859375 C10.04883718 12.32095364 8.56313831 10.83269356 7.078125 9.34375 C6.3688385 8.63851196 5.659552 7.93327393 4.92877197 7.20666504 C4.28099792 6.55258667 3.63322388 5.8985083 2.96582031 5.22460938 C2.10455536 4.36095764 2.10455536 4.36095764 1.22589111 3.4798584 C0 2 0 2 0 0 Z " fill="#E1E1E1" transform="translate(309,173)"/>
<path d="M0 0 C3.96 1.98 3.96 1.98 8 4 C6.02 4.99 6.02 4.99 4 6 C3.3006486 8.18541552 3.3006486 8.18541552 3.25 10.625 C3.19328125 11.44226563 3.1365625 12.25953125 3.078125 13.1015625 C3.05234375 13.72804687 3.0265625 14.35453125 3 15 C1.68 15 0.36 15 -1 15 C-1.02685412 12.68756208 -1.04632841 10.3750373 -1.0625 8.0625 C-1.07410156 6.77472656 -1.08570312 5.48695313 -1.09765625 4.16015625 C-1 1 -1 1 0 0 Z " fill="#212121" transform="translate(108,232)"/>
<path d="M0 0 C1.67542976 0.28604898 3.34385343 0.61781233 5 1 C5 3.31 5 5.62 5 8 C3.02 8.99 1.04 9.98 -1 11 C-1.02688151 9.35425434 -1.04634123 7.70838587 -1.0625 6.0625 C-1.07410156 5.14597656 -1.08570313 4.22945312 -1.09765625 3.28515625 C-1 1 -1 1 0 0 Z " fill="#040404" transform="translate(154,237)"/>
<path d="M0 0 C0.33 0 0.66 0 1 0 C1 1.98 1 3.96 1 6 C1.99 5.34 2.98 4.68 4 4 C6.6875 3.875 6.6875 3.875 9 4 C8.34 5.65 7.68 7.3 7 9 C3.96663814 9.22893297 1.02534949 9.36475845 -2 9 C-4.0625 7 -4.0625 7 -5 5 C-4.67 4.34 -4.34 3.68 -4 3 C-3.01 3.99 -2.02 4.98 -1 6 C-0.67 4.02 -0.34 2.04 0 0 Z " fill="#242424" transform="translate(380,238)"/>
<path d="M0 0 C-0.53851968 5.27749285 -1.77343836 9.25645564 -4 14 C-6.52883142 10.20675288 -6.61200158 7.45092058 -6 3 C-4.09357744 0.09497515 -3.53576709 0 0 0 Z " fill="#202020" transform="translate(397,233)"/>
<path d="M0 0 C0 3.3 0 6.6 0 10 C-1.65 10 -3.3 10 -5 10 C-5 7.03 -5 4.06 -5 1 C-2 0 -2 0 0 0 Z " fill="#1C1C1C" transform="translate(146,237)"/>
<path d="M0 0 C0.66 0.33 1.32 0.66 2 1 C3.87379605 1.07033769 5.75001102 1.0843022 7.625 1.0625 C8.62789063 1.05347656 9.63078125 1.04445313 10.6640625 1.03515625 C11.82035156 1.01775391 11.82035156 1.01775391 13 1 C12.34 2.32 11.68 3.64 11 5 C10.04738281 4.95359375 9.09476562 4.9071875 8.11328125 4.859375 C6.23189453 4.80523437 6.23189453 4.80523437 4.3125 4.75 C3.07113281 4.70359375 1.82976562 4.6571875 0.55078125 4.609375 C-3.53455169 5.05880657 -5.09488246 6.17820323 -8 9 C-6.4169423 4.7257442 -3.49431596 2.73468206 0 0 Z " fill="#D8D8D8" transform="translate(349,124)"/>
<path d="M0 0 C0 1.98 0 3.96 0 6 C-1.2375 6.0825 -2.475 6.165 -3.75 6.25 C-6.98882964 6.63475459 -7.87907883 6.90024003 -10.5 9.0625 C-10.995 9.701875 -11.49 10.34125 -12 11 C-12.66 10.67 -13.32 10.34 -14 10 C-4.49315068 0 -4.49315068 0 0 0 Z " fill="#DCDCDC" transform="translate(383,120)"/>
<path d="M0 0 C0.7425 0.185625 1.485 0.37125 2.25 0.5625 C4.94990963 0.99203108 6.44631077 0.85122974 9 0 C9 1.65 9 3.3 9 5 C7.68 5 6.36 5 5 5 C4.67 6.32 4.34 7.64 4 9 C0 2.25 0 2.25 0 0 Z " fill="#202020" transform="translate(79,233)"/>
<path d="M0 0 C1.98 0.66 3.96 1.32 6 2 C5.34 4.64 4.68 7.28 4 10 C2.68 10 1.36 10 0 10 C0 6.7 0 3.4 0 0 Z " fill="#1D1D1D" transform="translate(409,237)"/>
<path d="M0 0 C2.97 0.495 2.97 0.495 6 1 C5.01 1.495 5.01 1.495 4 2 C4 4.64 4 7.28 4 10 C2.68 10 1.36 10 0 10 C0 6.7 0 3.4 0 0 Z " fill="#1C1C1C" transform="translate(117,237)"/>
<path d="M0 0 C1.66926454 0.97473126 3.33535642 1.95489789 5 2.9375 C6.3921875 3.75541016 6.3921875 3.75541016 7.8125 4.58984375 C8.534375 5.05519531 9.25625 5.52054688 10 6 C10 6.33 10 6.66 10 7 C3.375 7.25 3.375 7.25 0 5 C-0.1875 2.375 -0.1875 2.375 0 0 Z " fill="#292929" transform="translate(416,240)"/>
<path d="M0 0 C5.75 0.75 5.75 0.75 8 3 C8 3.99 8 4.98 8 6 C6.35 6 4.7 6 3 6 C3 5.34 3 4.68 3 4 C2.01 4 1.02 4 0 4 C0 2.68 0 1.36 0 0 Z " fill="#1A1A1A" transform="translate(381,233)"/>
<path d="M0 0 C2.0625 0.4375 2.0625 0.4375 4 1 C4.625 2.875 4.625 2.875 5 5 C4.34 5.66 3.68 6.32 3 7 C0.875 6.625 0.875 6.625 -1 6 C-1.042721 4.33388095 -1.04063832 2.66617115 -1 1 C-0.67 0.67 -0.34 0.34 0 0 Z " fill="#020202" transform="translate(171,237)"/>
<path d="M0 0 C2.0625 0.4375 2.0625 0.4375 4 1 C4 2.65 4 4.3 4 6 C2.125 6.625 2.125 6.625 0 7 C-0.66 6.34 -1.32 5.68 -2 5 C-1.46428571 1.46428571 -1.46428571 1.46428571 0 0 Z " fill="#020202" transform="translate(95,237)"/>
<path d="M0 0 C2.97 0.495 2.97 0.495 6 1 C3.17493137 3.9297008 0.21203935 6.50174717 -3 9 C-2.5020163 5.26512223 -2.12508244 3.18762365 0 0 Z " fill="#2C2C2C" transform="translate(391,125)"/>
<path d="M0 0 C1.98 0 3.96 0 6 0 C5.67 1.32 5.34 2.64 5 4 C3.68 4.33 2.36 4.66 1 5 C0.67 3.35 0.34 1.7 0 0 Z " fill="#030303" transform="translate(128,239)"/>
<path d="M0 0 C0.33 0.99 0.66 1.98 1 3 C-2.69541586 3.95024979 -5.30458414 3.95024979 -9 3 C-9 2.34 -9 1.68 -9 1 C-7.88625 1.020625 -6.7725 1.04125 -5.625 1.0625 C-2.16784079 1.26380718 -2.16784079 1.26380718 0 0 Z " fill="#030303" transform="translate(175,246)"/>
<path d="M0 0 C0 3.20395416 -0.74335022 5.09399739 -2 8 C-2.99 8 -3.98 8 -5 8 C-5.99 8.495 -5.99 8.495 -7 9 C-5.44499019 5.18315774 -2.96404505 2.80804268 0 0 Z " fill="#1F1F1F" transform="translate(382,141)"/>
<path d="M0 0 C0.33 0 0.66 0 1 0 C1 2.97 1 5.94 1 9 C-0.32 9.33 -1.64 9.66 -3 10 C-2.01 6.7 -1.02 3.4 0 0 Z " fill="#2F2F2F" transform="translate(405,238)"/>
<path d="M0 0 C0.639375 0.2475 1.27875 0.495 1.9375 0.75 C2.2675 1.74 2.5975 2.73 2.9375 3.75 C-1.8125 3 -1.8125 3 -4.0625 0.75 C-2.0625 -0.25 -2.0625 -0.25 0 0 Z " fill="#0F0F0F" transform="translate(366.0625,240.25)"/>
</svg>
